<svg xmlns="http://www.w3.org/2000/svg" width="10.468" height="15.232" viewBox="0 0 10.468 15.232">
  <g id="地図マーカーのフリー素材5_1_" data-name="地図マーカーのフリー素材5 (1)" transform="translate(-80.063)">
    <path id="パス_359" data-name="パス 359" d="M85.3,0a5.235,5.235,0,0,0-5.235,5.235,4.621,4.621,0,0,0,.225,1.3,15.163,15.163,0,0,0,1.079,2.515,50.952,50.952,0,0,0,3.293,5.292l.637.887.636-.887c.007-.009,1.13-1.572,2.261-3.459a29.577,29.577,0,0,0,1.572-2.941,11.777,11.777,0,0,0,.54-1.408,4.619,4.619,0,0,0,.224-1.3A5.235,5.235,0,0,0,85.3,0Zm3.508,6.087a13.74,13.74,0,0,1-.97,2.242c-.639,1.228-1.436,2.51-2.071,3.479-.17.259-.326.494-.467.7-.443-.654-1.059-1.594-1.661-2.611a26.65,26.65,0,0,1-1.418-2.685,9.674,9.674,0,0,1-.44-1.163,3.064,3.064,0,0,1-.147-.817,3.666,3.666,0,1,1,7.332,0A3.151,3.151,0,0,1,88.806,6.087Z" transform="translate(0)" fill="#4b4b4b"/>
    <path id="パス_360" data-name="パス 360" d="M200.5,118.719a1.7,1.7,0,1,0,1.7,1.7A1.7,1.7,0,0,0,200.5,118.719Z" transform="translate(-115.202 -115.187)" fill="#4b4b4b"/>
  </g>
</svg>
